<svg preserveAspectRatio="none" width="100%" height="100%" overflow="visible" style="display: block;" viewBox="0 0 15.4979 20" fill="none" xmlns="http://www.w3.org/2000/svg">
<path id="Vector" d="M2.1557 7.323L2.1537 7.325L2.1497 7.328L2.1397 7.336C2.09631 7.36894 2.05427 7.40363 2.0137 7.44C1.90901 7.53273 1.80826 7.62982 1.7117 7.731C1.4717 7.984 1.1637 8.36 0.874705 8.863C0.292705 9.878 -0.196295 11.391 0.0787048 13.414C0.349705 15.411 1.1887 17.08 2.6067 18.244C4.0207 19.404 5.9347 20 8.2497 20C10.6367 20 12.5427 19.105 13.8037 17.57C15.0537 16.049 15.6117 13.974 15.4787 11.706C15.3507 9.53 14.1657 7.879 13.1187 6.421L12.8197 6.004C11.6777 4.392 10.7767 2.907 10.9957 0.829C11.0068 0.724415 10.9957 0.61867 10.9633 0.518629C10.9309 0.418589 10.8777 0.326491 10.8074 0.248314C10.737 0.170137 10.651 0.107629 10.5549 0.0648501C10.4589 0.0220708 10.3549 -2.41376e-05 10.2497 1.97879e-08C9.8677 1.97879e-08 9.4297 0.118 9.0077 0.296C8.51904 0.505509 8.05793 0.774183 7.63471 1.096C6.70971 1.794 5.7847 2.846 5.2917 4.252C4.7997 5.654 5.0497 6.99 5.4097 7.963C5.6467 8.602 5.38971 9.233 5.00271 9.417C4.83804 9.4949 4.64964 9.50614 4.47688 9.44837C4.30412 9.39059 4.16038 9.26828 4.07571 9.107L3.2697 7.576C3.21926 7.47995 3.14858 7.396 3.06254 7.32992C2.9765 7.26384 2.87714 7.21721 2.77134 7.19326C2.66553 7.1693 2.55578 7.16858 2.44967 7.19115C2.34355 7.21373 2.2436 7.25905 2.1567 7.324" fill="var(--fill-0, #F06100)"/>
</svg>
