<svg preserveAspectRatio="none" width="100%" height="100%" overflow="visible" style="display: block;" viewBox="0 0 32 32" fill="none" xmlns="http://www.w3.org/2000/svg">
<g id="Frame 38">
<path id="Vector" d="M7.0508 11.7168L7.0476 11.72L7.0412 11.7248L7.0252 11.7376C6.95577 11.7903 6.88851 11.8458 6.8236 11.904C6.6561 12.0524 6.49489 12.2077 6.3404 12.3696C5.9564 12.7744 5.4636 13.376 5.0012 14.1808C4.07 15.8048 3.2876 18.2256 3.7276 21.4624C4.1612 24.6576 5.5036 27.328 7.7724 29.1904C10.0348 31.0464 13.0972 32 16.8012 32C20.6204 32 23.67 30.568 25.6876 28.112C27.6876 25.6784 28.5804 22.3584 28.3676 18.7296C28.1628 15.248 26.2668 12.6064 24.5916 10.2736L24.1132 9.6064C22.286 7.0272 20.8444 4.6512 21.1948 1.3264C21.2125 1.15906 21.1949 0.989871 21.143 0.829807C21.091 0.669742 21.006 0.522385 20.8935 0.397302C20.7809 0.272219 20.6433 0.172207 20.4896 0.10376C20.3359 0.0353132 20.1695 -3.86202e-05 20.0012 3.16606e-08C19.39 3.16606e-08 18.6892 0.1888 18.014 0.4736C17.2321 0.808815 16.4944 1.23869 15.8172 1.7536C14.3372 2.8704 12.8572 4.5536 12.0684 6.8032C11.2812 9.0464 11.6812 11.184 12.2572 12.7408C12.6364 13.7632 12.2252 14.7728 11.606 15.0672C11.3425 15.1918 11.0411 15.2098 10.7647 15.1174C10.4883 15.025 10.2583 14.8293 10.1228 14.5712L8.8332 12.1216C8.75249 11.9679 8.6394 11.8336 8.50174 11.7279C8.36407 11.6221 8.20511 11.5475 8.03581 11.5092C7.86652 11.4709 7.69093 11.4697 7.52114 11.5058C7.35136 11.542 7.19144 11.6145 7.0524 11.7184" fill="var(--fill-0, white)"/>
</g>
</svg>
