<svg preserveAspectRatio="none" width="100%" height="100%" overflow="visible" style="display: block;" viewBox="0 0 16 16" fill="none" xmlns="http://www.w3.org/2000/svg">
<g id="lucide/goal">
<path id="Vector" d="M8 8.66667V1.33333L13.3333 4L8 6.66667M13.7073 6.81467C14.0621 7.90809 14.0953 9.08042 13.803 10.1922C13.5106 11.3039 12.9051 12.3083 12.0584 13.0858C11.2117 13.8633 10.1594 14.3812 9.02682 14.5779C7.89424 14.7746 6.72899 14.6418 5.66971 14.1953C4.61042 13.7488 3.7017 13.0074 3.05166 12.0593C2.40161 11.1112 2.0376 9.9963 2.00294 8.84728C1.96828 7.69827 2.26442 6.56348 2.85614 5.57792C3.44785 4.59237 4.31023 3.79754 5.34067 3.288M5.33467 6.66467C5.0006 7.10935 4.78312 7.63055 4.70203 8.18079C4.62094 8.73103 4.67882 9.29282 4.8704 9.81497C5.06198 10.3371 5.38117 10.803 5.79889 11.1702C6.2166 11.5375 6.71957 11.7943 7.26195 11.9174C7.80434 12.0405 8.36891 12.026 8.90423 11.8751C9.43955 11.7241 9.92859 11.4417 10.3268 11.0534C10.725 10.6651 11.0198 10.1834 11.1841 9.65202C11.3485 9.12068 11.3774 8.55666 11.268 8.01133" stroke="var(--stroke-0, white)" stroke-width="1.2" stroke-linecap="round" stroke-linejoin="round"/>
</g>
</svg>
