<svg preserveAspectRatio="none" width="100%" height="100%" overflow="visible" style="display: block;" viewBox="0 0 13.5122 13.9941" fill="none" xmlns="http://www.w3.org/2000/svg">
<g id="Group">
<path id="Vector" opacity="0.987" fill-rule="evenodd" clip-rule="evenodd" d="M5.95925 0.06075C6.68425 -0.02025 7.11325 -0.02025 7.89225 0.06075C9.27119 0.264845 10.5495 0.902235 11.5423 1.88075C10.8714 2.51489 10.2093 3.15828 9.55625 3.81075C8.30559 2.75075 6.90959 2.50608 5.36825 3.07675C4.23759 3.59675 3.45025 4.43942 3.00625 5.60475C2.28069 5.06458 1.56458 4.51183 0.858252 3.94675C0.809165 3.92091 0.7531 3.91145 0.698252 3.91975C1.82025 1.75642 3.57359 0.46975 5.95825 0.05975" fill="var(--fill-0, #F44336)"/>
<path id="Vector_2" opacity="0.997" fill-rule="evenodd" clip-rule="evenodd" d="M0.696252 3.91975C0.752919 3.91108 0.806586 3.92008 0.857252 3.94675C1.56358 4.51183 2.27969 5.06458 3.00525 5.60475C2.89108 6.05881 2.8191 6.52245 2.79025 6.98975C2.81492 7.44175 2.88659 7.88542 3.00525 8.32075L0.750252 10.1158C-0.231748 8.06375 -0.249748 5.99842 0.696252 3.91975Z" fill="var(--fill-0, #FFC107)"/>
<path id="Vector_3" opacity="0.999" fill-rule="evenodd" clip-rule="evenodd" d="M11.4353 12.2898C10.7331 11.6705 9.99804 11.0897 9.23325 10.5498C9.99992 10.0084 10.4653 9.26575 10.6293 8.32175H6.87225V5.71275C9.03892 5.69475 11.2046 5.71308 13.3693 5.76775C13.7799 7.99775 13.3056 10.0084 11.9463 11.7998C11.7846 11.9716 11.6134 12.1351 11.4353 12.2898Z" fill="var(--fill-0, #8585F9)"/>
<path id="Vector_4" opacity="0.993" fill-rule="evenodd" clip-rule="evenodd" d="M3.00525 8.32175C3.82525 10.3597 5.32859 11.3111 7.51525 11.1757C8.12909 11.1047 8.7176 10.8903 9.23325 10.5498C9.99859 11.0911 10.7326 11.6711 11.4353 12.2898C10.3219 13.2902 8.90236 13.8838 7.40825 13.9738C7.06879 14.0009 6.72771 14.0009 6.38825 13.9738C3.84292 13.6738 1.96359 12.3878 0.750252 10.1158L3.00525 8.32175Z" fill="var(--fill-0, #43A047)"/>
</g>
</svg>
