<svg preserveAspectRatio="none" width="100%" height="100%" overflow="visible" style="display: block;" viewBox="0 0 20 20" fill="none" xmlns="http://www.w3.org/2000/svg">
<g id="lucide/zap">
<path id="Vector" d="M3.3333 11.6667C3.1756 11.6672 3.02099 11.623 2.88743 11.5392C2.75386 11.4553 2.64683 11.3353 2.57876 11.1931C2.51069 11.0508 2.48438 10.8922 2.50288 10.7356C2.52139 10.579 2.58395 10.4308 2.6833 10.3084L10.9333 1.80835C10.9952 1.73692 11.0795 1.68865 11.1724 1.67146C11.2654 1.65428 11.3614 1.6692 11.4447 1.71377C11.5281 1.75835 11.5938 1.82993 11.6311 1.91678C11.6684 2.00362 11.675 2.10056 11.65 2.19169L10.05 7.20835C10.0028 7.33462 9.98694 7.47045 10.0038 7.60419C10.0206 7.73793 10.0697 7.86559 10.1467 7.97621C10.2237 8.08683 10.3264 8.17712 10.446 8.23932C10.5656 8.30152 10.6985 8.33379 10.8333 8.33335H16.6666C16.8243 8.33282 16.9789 8.37703 17.1125 8.46087C17.2461 8.54471 17.3531 8.66472 17.4212 8.80697C17.4892 8.94922 17.5156 9.10786 17.497 9.26447C17.4785 9.42108 17.416 9.56922 17.3166 9.69169L9.06663 18.1917C9.00475 18.2631 8.92041 18.3114 8.82748 18.3286C8.73454 18.3458 8.63853 18.3308 8.55519 18.2863C8.47185 18.2417 8.40614 18.1701 8.36885 18.0833C8.33156 17.9964 8.3249 17.8995 8.34996 17.8084L9.94996 12.7917C9.99714 12.6654 10.013 12.5296 9.99614 12.3958C9.97929 12.2621 9.93025 12.1345 9.85322 12.0238C9.7762 11.9132 9.67349 11.8229 9.5539 11.7607C9.43432 11.6985 9.30143 11.6662 9.16663 11.6667H3.3333Z" fill="var(--fill-0, #8585F9)" stroke="var(--stroke-0, #8585F9)" stroke-width="1.42857" stroke-linecap="round" stroke-linejoin="round"/>
</g>
</svg>
